<svg width="248" height="249" viewBox="0 0 248 249" fill="none" xmlns="http://www.w3.org/2000/svg">
<g id="Frame 48097435">
<g id="Group 623">
<path id="Vector" d="M212.058 0.0283203H35.942C16.0918 0.0283203 0 16.1201 0 35.9704V212.086C0 231.937 16.0918 248.028 35.942 248.028H212.058C231.908 248.028 248 231.937 248 212.086V35.9704C248 16.1201 231.908 0.0283203 212.058 0.0283203Z" fill="white"/>
<g id="Group" filter="url(#filter0_diii_1120_1147)">
<path id="Vector_2" d="M112.882 190.561L137.668 165.726C140.474 162.912 140.474 158.355 137.668 155.541L72.1032 89.8504C69.2972 87.0362 64.7441 87.0362 61.9381 89.8504L37.1514 114.685C34.3454 117.5 34.3454 122.057 37.1514 124.871L102.716 190.561C105.522 193.375 110.072 193.375 112.882 190.561Z" fill="#0080FF"/>
<path id="Vector_3" d="M112.882 190.561L137.668 165.726C140.474 162.912 140.474 158.355 137.668 155.541L72.1032 89.8504C69.2972 87.0362 64.7441 87.0362 61.9381 89.8504L37.1514 114.685C34.3454 117.5 34.3454 122.057 37.1514 124.871L102.716 190.561C105.522 193.375 110.072 193.375 112.882 190.561Z" fill="url(#paint0_linear_1120_1147)"/>
<path id="Vector_4" d="M112.882 190.561L137.668 165.726C140.474 162.912 140.474 158.355 137.668 155.541L72.1032 89.8504C69.2972 87.0362 64.7441 87.0362 61.9381 89.8504L37.1514 114.685C34.3454 117.5 34.3454 122.057 37.1514 124.871L102.716 190.561C105.522 193.375 110.072 193.375 112.882 190.561Z" fill="url(#paint1_linear_1120_1147)" fill-opacity="0.7"/>
</g>
<g id="Group_2" filter="url(#filter1_diii_1120_1147)">
<path id="Vector_5" d="M102.926 190.74L77.7631 165.528C75.0581 162.819 75.0581 158.428 77.7631 155.719L171.932 61.3645C174.637 58.6552 179.02 58.6552 181.721 61.3645L206.883 86.5753C209.589 89.2846 209.589 93.6757 206.883 96.385L112.715 190.74C110.014 193.445 105.631 193.445 102.926 190.74Z" fill="#00C2FF"/>
<path id="Vector_6" d="M102.926 190.74L77.7631 165.528C75.0581 162.819 75.0581 158.428 77.7631 155.719L171.932 61.3645C174.637 58.6552 179.02 58.6552 181.721 61.3645L206.883 86.5753C209.589 89.2846 209.589 93.6757 206.883 96.385L112.715 190.74C110.014 193.445 105.631 193.445 102.926 190.74Z" fill="url(#paint2_linear_1120_1147)"/>
<path id="Vector_7" d="M102.926 190.74L77.7631 165.528C75.0581 162.819 75.0581 158.428 77.7631 155.719L171.932 61.3645C174.637 58.6552 179.02 58.6552 181.721 61.3645L206.883 86.5753C209.589 89.2846 209.589 93.6757 206.883 96.385L112.715 190.74C110.014 193.445 105.631 193.445 102.926 190.74Z" fill="url(#paint3_linear_1120_1147)" fill-opacity="0.7"/>
</g>
</g>
</g>
<defs>
<filter id="filter0_diii_1120_1147" x="15.0469" y="77.7397" width="144.727" height="148.394" filterUnits="userSpaceOnUse" color-interpolation-filters="sRGB">
<feFlood flood-opacity="0" result="BackgroundImageFix"/>
<feColorMatrix in="SourceAlpha" type="matrix" values="0 0 0 0 0 0 0 0 0 0 0 0 0 0 0 0 0 0 127 0" result="hardAlpha"/>
<feOffset dy="13.462"/>
<feGaussianBlur stdDeviation="10"/>
<feColorMatrix type="matrix" values="0 0 0 0 0 0 0 0 0 0.501961 0 0 0 0 1 0 0 0 0.6 0"/>
<feBlend mode="normal" in2="BackgroundImageFix" result="effect1_dropShadow_1120_1147"/>
<feBlend mode="normal" in="SourceGraphic" in2="effect1_dropShadow_1120_1147" result="shape"/>
<feColorMatrix in="SourceAlpha" type="matrix" values="0 0 0 0 0 0 0 0 0 0 0 0 0 0 0 0 0 0 127 0" result="hardAlpha"/>
<feOffset dy="20.19"/>
<feGaussianBlur stdDeviation="45"/>
<feComposite in2="hardAlpha" operator="arithmetic" k2="-1" k3="1"/>
<feColorMatrix type="matrix" values="0 0 0 0 0 0 0 0 0 0.501961 0 0 0 0 1 0 0 0 0.6 0"/>
<feBlend mode="normal" in2="shape" result="effect2_innerShadow_1120_1147"/>
<feColorMatrix in="SourceAlpha" type="matrix" values="0 0 0 0 0 0 0 0 0 0 0 0 0 0 0 0 0 0 127 0" result="hardAlpha"/>
<feOffset dy="15"/>
<feGaussianBlur stdDeviation="6.5"/>
<feComposite in2="hardAlpha" operator="arithmetic" k2="-1" k3="1"/>
<feColorMatrix type="matrix" values="0 0 0 0 1 0 0 0 0 1 0 0 0 0 1 0 0 0 0.3 0"/>
<feBlend mode="normal" in2="effect2_innerShadow_1120_1147" result="effect3_innerShadow_1120_1147"/>
<feColorMatrix in="SourceAlpha" type="matrix" values="0 0 0 0 0 0 0 0 0 0 0 0 0 0 0 0 0 0 127 0" result="hardAlpha"/>
<feOffset dy="-10"/>
<feGaussianBlur stdDeviation="7"/>
<feComposite in2="hardAlpha" operator="arithmetic" k2="-1" k3="1"/>
<feColorMatrix type="matrix" values="0 0 0 0 1 0 0 0 0 1 0 0 0 0 1 0 0 0 0.25 0"/>
<feBlend mode="normal" in2="effect3_innerShadow_1120_1147" result="effect4_innerShadow_1120_1147"/>
</filter>
<filter id="filter1_diii_1120_1147" x="55.7344" y="49.3325" width="173.18" height="176.898" filterUnits="userSpaceOnUse" color-interpolation-filters="sRGB">
<feFlood flood-opacity="0" result="BackgroundImageFix"/>
<feColorMatrix in="SourceAlpha" type="matrix" values="0 0 0 0 0 0 0 0 0 0 0 0 0 0 0 0 0 0 127 0" result="hardAlpha"/>
<feOffset dy="13.462"/>
<feGaussianBlur stdDeviation="10"/>
<feColorMatrix type="matrix" values="0 0 0 0 0 0 0 0 0 0.760784 0 0 0 0 1 0 0 0 0.6 0"/>
<feBlend mode="normal" in2="BackgroundImageFix" result="effect1_dropShadow_1120_1147"/>
<feBlend mode="normal" in="SourceGraphic" in2="effect1_dropShadow_1120_1147" result="shape"/>
<feColorMatrix in="SourceAlpha" type="matrix" values="0 0 0 0 0 0 0 0 0 0 0 0 0 0 0 0 0 0 127 0" result="hardAlpha"/>
<feOffset dy="20.19"/>
<feGaussianBlur stdDeviation="45"/>
<feComposite in2="hardAlpha" operator="arithmetic" k2="-1" k3="1"/>
<feColorMatrix type="matrix" values="0 0 0 0 0 0 0 0 0 0.760784 0 0 0 0 1 0 0 0 0.6 0"/>
<feBlend mode="normal" in2="shape" result="effect2_innerShadow_1120_1147"/>
<feColorMatrix in="SourceAlpha" type="matrix" values="0 0 0 0 0 0 0 0 0 0 0 0 0 0 0 0 0 0 127 0" result="hardAlpha"/>
<feOffset dy="15"/>
<feGaussianBlur stdDeviation="6.5"/>
<feComposite in2="hardAlpha" operator="arithmetic" k2="-1" k3="1"/>
<feColorMatrix type="matrix" values="0 0 0 0 1 0 0 0 0 1 0 0 0 0 1 0 0 0 0.3 0"/>
<feBlend mode="normal" in2="effect2_innerShadow_1120_1147" result="effect3_innerShadow_1120_1147"/>
<feColorMatrix in="SourceAlpha" type="matrix" values="0 0 0 0 0 0 0 0 0 0 0 0 0 0 0 0 0 0 127 0" result="hardAlpha"/>
<feOffset dy="-10"/>
<feGaussianBlur stdDeviation="7"/>
<feComposite in2="hardAlpha" operator="arithmetic" k2="-1" k3="1"/>
<feColorMatrix type="matrix" values="0 0 0 0 1 0 0 0 0 1 0 0 0 0 1 0 0 0 0.25 0"/>
<feBlend mode="normal" in2="effect3_innerShadow_1120_1147" result="effect4_innerShadow_1120_1147"/>
</filter>
<linearGradient id="paint0_linear_1120_1147" x1="87.49" y1="50.0554" x2="87.49" y2="169.354" gradientUnits="userSpaceOnUse">
<stop offset="0.005" stop-color="white" stop-opacity="0.08"/>
<stop offset="0.085" stop-opacity="0.08"/>
<stop offset="0.337" stop-color="white" stop-opacity="0.1"/>
<stop offset="0.661" stop-color="white" stop-opacity="0.1"/>
<stop offset="1" stop-opacity="0.1"/>
</linearGradient>
<linearGradient id="paint1_linear_1120_1147" x1="87.4098" y1="87.7396" x2="87.4098" y2="192.672" gradientUnits="userSpaceOnUse">
<stop stop-color="#0080FF"/>
<stop offset="1" stop-color="white" stop-opacity="0"/>
</linearGradient>
<linearGradient id="paint2_linear_1120_1147" x1="142.425" y1="11.4123" x2="142.425" y2="163.116" gradientUnits="userSpaceOnUse">
<stop offset="0.005" stop-color="white" stop-opacity="0.08"/>
<stop offset="0.085" stop-opacity="0.08"/>
<stop offset="0.337" stop-color="white" stop-opacity="0.1"/>
<stop offset="0.661" stop-color="white" stop-opacity="0.1"/>
<stop offset="1" stop-opacity="0.1"/>
</linearGradient>
<linearGradient id="paint3_linear_1120_1147" x1="142.323" y1="59.3327" x2="142.323" y2="192.768" gradientUnits="userSpaceOnUse">
<stop stop-color="#00C2FF"/>
<stop offset="1" stop-color="white" stop-opacity="0"/>
</linearGradient>
</defs>
</svg>
